<?xml version="1.0" encoding="iso-8859-1"?>
<!-- Generator: Adobe Illustrator 19.0.0, SVG Export Plug-In . SVG Version: 6.00 Build 0)  -->
<svg version="1.1" id="Capa_1" xmlns="http://www.w3.org/2000/svg" xmlns:xlink="http://www.w3.org/1999/xlink" x="0px" y="0px"
	 viewBox="0 0 512 512" style="enable-background:new 0 0 512 512;" xml:space="preserve" fill="none">
<linearGradient id="SVGID_1_" gradientUnits="userSpaceOnUse" x1="0" y1="258" x2="512" y2="258" gradientTransform="matrix(1 0 0 -1 0 514)">
	<stop  offset="0" style="stop-color:#80D8FF"/>
	<stop  offset="1" style="stop-color:#EA80FC"/>
</linearGradient>
<path style="fill:url(#SVGID_1_);" d="M452,236h-0.642L412.572,90.837C410.234,82.087,402.308,76,393.25,76H356V20
	c0-11.046-8.954-20-20-20H176c-11.046,0-20,8.954-20,20v56h-37.25c-9.058,0-16.984,6.087-19.322,14.837L60.642,236H60
	c-33.084,0-60,26.916-60,60v80c0,33.084,26.916,60,60,60h16v56c0,11.046,8.954,20,20,20h76c11.046,0,20-8.954,20-20v-56h128v56
	c0,11.046,8.954,20,20,20h76c11.046,0,20-8.954,20-20v-56h16c33.084,0,60-26.916,60-60v-80C512,262.916,485.084,236,452,236z
	 M196,40h120v36H196V40z M134.107,116c7.197,0,236.613,0,243.785,0l32.063,120h-307.91L134.107,116z M152,472h-36v-36h36V472z
	 M396,472h-36v-36h36V472z M472,376c0,11.028-8.972,20-20,20c-18.637,0-277.359,0-280,0c-12.032,0-100.426,0-112,0
	c-11.028,0-20-8.972-20-20v-80c0-11.028,8.972-20,20-20c46.977,0,348.294,0,392,0c11.028,0,20,8.972,20,20V376z M141,336
	c0,13.807-11.193,25-25,25s-25-11.193-25-25s11.193-25,25-25S141,322.193,141,336z M421,336c0,13.807-11.193,25-25,25
	s-25-11.193-25-25s11.193-25,25-25S421,322.193,421,336z"/>
<g>
</g>
<g>
</g>
<g>
</g>
<g>
</g>
<g>
</g>
<g>
</g>
<g>
</g>
<g>
</g>
<g>
</g>
<g>
</g>
<g>
</g>
<g>
</g>
<g>
</g>
<g>
</g>
<g>
</g>
</svg>
